<svg xmlns="http://www.w3.org/2000/svg" width="119" height="58" viewBox="0 0 119 58">
  <g id="Grupo_39" data-name="Grupo 39" transform="translate(-626 -320)">
    <path id="Sustracción_1" data-name="Sustracción 1" d="M119,58H0A56.385,56.385,0,0,1,4.676,35.423a57.548,57.548,0,0,1,5.486-9.852,58.752,58.752,0,0,1,7.265-8.584A59.7,59.7,0,0,1,36.34,4.558,60.6,60.6,0,0,1,92.767,9.905a59.634,59.634,0,0,1,8.806,7.082,58.763,58.763,0,0,1,7.265,8.584,57.562,57.562,0,0,1,5.486,9.852A56.381,56.381,0,0,1,119,58Z" transform="translate(626 320)" fill="snow"/>
    <ellipse id="Elipse_49" data-name="Elipse 49" cx="8" cy="8.5" rx="8" ry="8.5" transform="translate(643 357)" fill="#ccc"/>
    <ellipse id="Elipse_50" data-name="Elipse 50" cx="17" cy="17.5" rx="17" ry="17.5" transform="translate(681 331)" fill="#ccc"/>
  </g>
</svg>
