<svg xmlns="http://www.w3.org/2000/svg" width="35.103" height="48.266" viewBox="0 0 35.103 48.266">
  <path id="Icon_material-developer-mode" data-name="Icon material-developer-mode" d="M12.582,10.276H34.521v4.388h4.388V5.888a4.382,4.382,0,0,0-4.388-4.366L12.582,1.5A4.4,4.4,0,0,0,8.194,5.888v8.776h4.388ZM31.032,35.7,41.1,25.633l-10.07-10.07-3.093,3.115,6.955,6.955-6.955,6.955L31.032,35.7ZM19.163,32.588l-6.955-6.955,6.955-6.955L16.07,15.563,6,25.633,16.07,35.7Zm15.357,8.4H12.582V36.6H8.194v8.776a4.4,4.4,0,0,0,4.388,4.388H34.521a4.4,4.4,0,0,0,4.388-4.388V36.6H34.521Z" transform="translate(-6 -1.5)" fill="#b3e6de"/>
</svg>
