<svg xmlns="http://www.w3.org/2000/svg" width="65.488" height="43.442" viewBox="0 0 65.488 43.442">
  <path id="Icon_ionic-ios-laptop" data-name="Icon ionic-ios-laptop" d="M60.046,46.414V10.454A2.493,2.493,0,0,0,57.7,7.875H10.023a2.483,2.483,0,0,0-2.346,2.579v35.96H1.118A4.3,4.3,0,0,0,3.7,49.838a16.615,16.615,0,0,0,6.71,1.478H57.319a16.554,16.554,0,0,0,6.587-1.327c1.3-.6,2.7-2.021,2.7-3.575h-6.56ZM33.862,9.082a.606.606,0,1,1-.546.6A.578.578,0,0,1,33.862,9.082ZM10.132,11.525H57.591a.289.289,0,0,1,.273.3V43.7a.289.289,0,0,1-.273.3H10.132a.289.289,0,0,1-.273-.3V11.827A.28.28,0,0,1,10.132,11.525Zm29.5,36.1H28.093A1.675,1.675,0,0,1,26.77,46.49H40.953A1.4,1.4,0,0,1,39.631,47.621Z" transform="translate(-1.118 -7.875)" fill="#b3e6de"/>
</svg>
